<svg width="613" height="946" viewBox="0 0 613 946" fill="none" xmlns="http://www.w3.org/2000/svg">
<path opacity="0.1" d="M160.624 146.32L156.925 141.229L162.017 137.53C162.657 137.065 162.801 136.156 162.336 135.515C161.87 134.874 160.962 134.73 160.321 135.196L155.229 138.895L151.531 133.803C151.065 133.162 150.157 133.018 149.516 133.484C148.875 133.949 148.731 134.858 149.197 135.498L152.895 140.59L147.804 144.289C147.163 144.754 147.019 145.663 147.484 146.304C147.95 146.944 148.858 147.088 149.499 146.623L154.591 142.924L158.289 148.016C158.755 148.657 159.664 148.801 160.304 148.335C160.955 147.871 161.097 146.973 160.624 146.32Z" fill="white"/>
<path opacity="0.1" d="M501.62 200.317L497.921 195.226L503.013 191.527C503.654 191.062 503.798 190.153 503.332 189.512C502.867 188.871 501.958 188.727 501.317 189.193L496.226 192.892L492.527 187.8C492.062 187.159 491.153 187.015 490.512 187.481C489.871 187.946 489.727 188.855 490.193 189.495L493.892 194.587L488.8 198.286C488.159 198.751 488.015 199.66 488.481 200.301C488.946 200.941 489.855 201.085 490.495 200.62L495.587 196.921L499.286 202.013C499.751 202.654 500.66 202.798 501.301 202.332C501.951 201.868 502.094 200.969 501.62 200.317Z" fill="white"/>
<path opacity="0.1" d="M479.009 167.854L477.106 165.233L479.726 163.33C480.056 163.09 480.13 162.623 479.89 162.293C479.651 161.963 479.183 161.889 478.854 162.128L476.233 164.032L474.33 161.412C474.09 161.082 473.623 161.008 473.293 161.247C472.963 161.487 472.889 161.954 473.128 162.284L475.032 164.905L472.412 166.808C472.082 167.048 472.008 167.515 472.247 167.845C472.487 168.175 472.954 168.249 473.284 168.009L475.905 166.106L477.808 168.726C478.048 169.056 478.515 169.13 478.845 168.89C479.18 168.652 479.253 168.189 479.009 167.854Z" fill="white"/>
<path opacity="0.1" d="M103.77 194.76H160.53V251.52H103.77V194.76Z" stroke="white" stroke-width="2" stroke-miterlimit="10"/>
<path opacity="0.1" d="M75.39 166.38H132.15V223.14H75.39V166.38Z" fill="white"/>
<path opacity="0.1" d="M516.968 567.832L444.158 630.41C426.875 610.302 429.166 579.992 449.274 562.71C469.382 545.428 499.686 547.724 516.968 567.832Z" fill="white"/>
<path d="M590.278 0H586V17.5199H590.278V0Z" fill="#0436E7"/>
<path d="M601.144 0H596.867V17.5199H601.144V0Z" fill="#0436E7"/>
<path d="M612.011 0H607.733V17.5199H612.011V0Z" fill="#0436E7"/>
<path d="M590.278 24.9516H586V42.4715H590.278V24.9516Z" fill="#0436E7"/>
<path d="M601.144 24.9516H596.867V42.4715H601.144V24.9516Z" fill="#0436E7"/>
<path d="M601.144 49.8951H596.867V67.4151H601.144V49.8951Z" fill="#0436E7"/>
<path d="M612.011 49.8951H607.733V67.4151H612.011V49.8951Z" fill="#0436E7"/>
<path d="M590.278 74.8469H586V92.3668H590.278V74.8469Z" fill="#0436E7"/>
<path d="M612.011 74.8469H607.733V92.3668H612.011V74.8469Z" fill="#0436E7"/>
<path d="M590.278 99.7985H586V117.318H590.278V99.7985Z" fill="#0436E7"/>
<path d="M601.144 99.7985H596.867V117.318H601.144V99.7985Z" fill="#0436E7"/>
<path d="M590.278 124.75H586V142.27H590.278V124.75Z" fill="#0436E7"/>
<path d="M601.144 124.75H596.867V142.27H601.144V124.75Z" fill="#0436E7"/>
<path d="M612.011 124.75H607.733V142.27H612.011V124.75Z" fill="#0436E7"/>
<path d="M77.8768 871.246C76.1559 871.246 74.7537 869.844 74.7537 868.123C74.7537 866.402 76.1559 865 77.8768 865C79.5978 865 81 866.402 81 868.123C81 869.855 79.5978 871.246 77.8768 871.246ZM81 886.809C81 885.088 79.5978 883.686 77.8768 883.686C76.1559 883.686 74.7537 885.088 74.7537 886.809C74.7537 888.53 76.1559 889.932 77.8768 889.932C79.5978 889.932 81 888.54 81 886.809ZM81 905.495C81 903.774 79.5978 902.372 77.8768 902.372C76.1559 902.372 74.7537 903.774 74.7537 905.495C74.7537 907.216 76.1559 908.618 77.8768 908.618C79.5978 908.628 81 907.226 81 905.495ZM81 924.191C81 922.47 79.5978 921.068 77.8768 921.068C76.1559 921.068 74.7537 922.47 74.7537 924.191C74.7537 925.912 76.1559 927.314 77.8768 927.314C79.5978 927.314 81 925.912 81 924.191ZM81 942.877C81 941.156 79.5978 939.754 77.8768 939.754C76.1559 939.754 74.7537 941.156 74.7537 942.877C74.7537 944.598 76.1559 946 77.8768 946C79.5978 946 81 944.598 81 942.877ZM62.3142 868.123C62.3142 866.402 60.912 865 59.1911 865C57.4701 865 56.0679 866.402 56.0679 868.123C56.0679 869.844 57.4701 871.246 59.1911 871.246C60.912 871.246 62.3142 869.855 62.3142 868.123ZM62.3142 886.809C62.3142 885.088 60.912 883.686 59.1911 883.686C57.4701 883.686 56.0679 885.088 56.0679 886.809C56.0679 888.53 57.4701 889.932 59.1911 889.932C60.912 889.932 62.3142 888.54 62.3142 886.809ZM62.3142 905.495C62.3142 903.774 60.912 902.372 59.1911 902.372C57.4701 902.372 56.0679 903.774 56.0679 905.495C56.0679 907.216 57.4701 908.618 59.1911 908.618C60.912 908.628 62.3142 907.226 62.3142 905.495ZM62.3142 924.191C62.3142 922.47 60.912 921.068 59.1911 921.068C57.4701 921.068 56.0679 922.47 56.0679 924.191C56.0679 925.912 57.4701 927.314 59.1911 927.314C60.912 927.314 62.3142 925.912 62.3142 924.191ZM62.3142 942.877C62.3142 941.156 60.912 939.754 59.1911 939.754C57.4701 939.754 56.0679 941.156 56.0679 942.877C56.0679 944.598 57.4701 946 59.1911 946C60.912 946 62.3142 944.598 62.3142 942.877ZM43.6178 868.123C43.6178 866.402 42.2156 865 40.4947 865C38.7738 865 37.3715 866.402 37.3715 868.123C37.3715 869.844 38.7738 871.246 40.4947 871.246C42.2262 871.246 43.6178 869.855 43.6178 868.123ZM43.6178 886.809C43.6178 885.088 42.2156 883.686 40.4947 883.686C38.7738 883.686 37.3715 885.088 37.3715 886.809C37.3715 888.53 38.7738 889.932 40.4947 889.932C42.2262 889.932 43.6178 888.54 43.6178 886.809ZM43.6178 905.495C43.6178 903.774 42.2156 902.372 40.4947 902.372C38.7738 902.372 37.3715 903.774 37.3715 905.495C37.3715 907.216 38.7738 908.618 40.4947 908.618C42.2262 908.628 43.6178 907.226 43.6178 905.495ZM43.6178 924.191C43.6178 922.47 42.2156 921.068 40.4947 921.068C38.7738 921.068 37.3715 922.47 37.3715 924.191C37.3715 925.912 38.7738 927.314 40.4947 927.314C42.2262 927.314 43.6178 925.912 43.6178 924.191ZM43.6178 942.877C43.6178 941.156 42.2156 939.754 40.4947 939.754C38.7738 939.754 37.3715 941.156 37.3715 942.877C37.3715 944.598 38.7738 946 40.4947 946C42.2262 946 43.6178 944.598 43.6178 942.877ZM24.932 868.123C24.932 866.402 23.5298 865 21.8089 865C20.088 865 18.6858 866.402 18.6858 868.123C18.6858 869.844 20.088 871.246 21.8089 871.246C23.5404 871.246 24.932 869.855 24.932 868.123ZM24.932 886.809C24.932 885.088 23.5298 883.686 21.8089 883.686C20.088 883.686 18.6858 885.088 18.6858 886.809C18.6858 888.53 20.088 889.932 21.8089 889.932C23.5404 889.932 24.932 888.54 24.932 886.809ZM24.932 905.495C24.932 903.774 23.5298 902.372 21.8089 902.372C20.088 902.372 18.6858 903.774 18.6858 905.495C18.6858 907.216 20.088 908.618 21.8089 908.618C23.5404 908.628 24.932 907.226 24.932 905.495ZM24.932 924.191C24.932 922.47 23.5298 921.068 21.8089 921.068C20.088 921.068 18.6858 922.47 18.6858 924.191C18.6858 925.912 20.088 927.314 21.8089 927.314C23.5404 927.314 24.932 925.912 24.932 924.191ZM24.932 942.877C24.932 941.156 23.5298 939.754 21.8089 939.754C20.088 939.754 18.6858 941.156 18.6858 942.877C18.6858 944.598 20.088 946 21.8089 946C23.5404 946 24.932 944.598 24.932 942.877ZM6.2463 868.123C6.2463 866.402 4.84407 865 3.12315 865C1.40223 865 0 866.402 0 868.123C0 869.844 1.40223 871.246 3.12315 871.246C4.84407 871.246 6.2463 869.855 6.2463 868.123ZM6.2463 886.809C6.2463 885.088 4.84407 883.686 3.12315 883.686C1.40223 883.686 0 885.088 0 886.809C0 888.53 1.40223 889.932 3.12315 889.932C4.84407 889.932 6.2463 888.54 6.2463 886.809ZM6.2463 905.495C6.2463 903.774 4.84407 902.372 3.12315 902.372C1.40223 902.372 0 903.774 0 905.495C0 907.216 1.40223 908.618 3.12315 908.618C4.84407 908.618 6.2463 907.226 6.2463 905.495ZM6.2463 924.191C6.2463 922.47 4.84407 921.068 3.12315 921.068C1.40223 921.068 0 922.47 0 924.191C0 925.912 1.40223 927.314 3.12315 927.314C4.84407 927.314 6.2463 925.912 6.2463 924.191ZM6.2463 942.877C6.2463 941.156 4.84407 939.754 3.12315 939.754C1.40223 939.754 0 941.156 0 942.877C0 944.598 1.40223 946 3.12315 946C4.84407 946 6.2463 944.598 6.2463 942.877Z" fill="#0331D6"/>
</svg>
